<?xml version="1.0" standalone="no"?>
<!DOCTYPE svg PUBLIC "-//W3C//DTD SVG 20010904//EN"
 "http://www.w3.org/TR/2001/REC-SVG-20010904/DTD/svg10.dtd">
<svg version="1.0" xmlns="http://www.w3.org/2000/svg"
 width="512.000000pt" height="512.000000pt" viewBox="0 0 512.000000 512.000000"
 preserveAspectRatio="xMidYMid meet">

<g transform="translate(0.000000,512.000000) scale(0.100000,-0.100000)"
fill="#000000" stroke="none">
<path d="M2335 5109 c-481 -42 -956 -230 -1355 -537 -116 -90 -360 -337 -446
-452 -286 -382 -447 -771 -510 -1230 -23 -169 -23 -491 0 -659 53 -391 187
-752 393 -1066 104 -157 183 -256 312 -388 576 -592 1393 -869 2208 -748 828
123 1540 642 1912 1392 185 373 266 717 266 1139 0 254 -18 400 -75 626 -85
336 -231 640 -443 924 -102 136 -358 389 -498 493 -521 386 -1130 560 -1764
506z m413 -1315 c46 -19 87 -57 102 -95 l12 -29 352 0 c260 0 355 -3 364 -12
9 -9 12 -68 12 -205 l0 -193 238 0 c175 0 243 -3 255 -13 16 -11 17 -33 15
-217 l-3 -205 -57 -3 c-50 -3 -58 -6 -58 -22 0 -17 7 -20 48 -20 26 0 53 -5
60 -12 9 -9 12 -69 12 -208 0 -139 -3 -199 -12 -208 -7 -7 -34 -12 -60 -12
-41 0 -48 -3 -48 -20 0 -16 8 -19 58 -22 l57 -3 3 -205 c2 -184 1 -206 -15
-217 -12 -10 -80 -13 -255 -13 l-238 0 0 -193 c0 -137 -3 -196 -12 -205 -9 -9
-104 -12 -364 -12 l-352 0 -12 -30 c-16 -39 -69 -85 -115 -100 -74 -24 -168
17 -201 89 l-19 40 -352 1 c-407 0 -383 -6 -383 95 0 60 -1 63 -26 69 -66 17
-189 184 -225 304 -10 33 -17 42 -35 42 -16 0 -25 -9 -33 -32 -27 -77 -105
-119 -183 -98 -47 13 -96 60 -104 99 -4 18 -19 33 -47 47 -23 12 -55 38 -71
58 -38 47 -47 137 -22 214 20 58 78 152 131 211 l37 40 -57 73 c-82 105 -117
178 -123 260 -6 82 7 115 59 162 59 54 127 70 268 63 64 -3 128 -9 142 -12 23
-6 26 -3 38 36 20 66 69 165 107 215 22 29 34 55 34 77 0 44 39 107 77 126 31
15 33 18 33 78 0 99 -24 93 385 93 l353 0 6 25 c9 34 70 93 109 104 48 14 73
13 115 -5z"/>
<path d="M2618 3700 c-27 -28 -30 -36 -25 -76 6 -54 28 -81 74 -90 81 -15 144
61 113 136 -28 68 -109 82 -162 30z"/>
<path d="M1860 3553 c0 -33 5 -40 33 -53 45 -21 77 -73 77 -125 0 -30 6 -47
21 -61 30 -27 68 -95 106 -189 l33 -80 42 5 c24 3 99 5 168 5 117 0 128 -2
177 -27 80 -42 98 -75 98 -178 0 -79 -3 -90 -38 -156 -21 -39 -60 -99 -88
-133 l-49 -61 33 -38 c116 -130 168 -264 142 -364 -14 -54 -59 -109 -106 -128
-18 -8 -32 -24 -39 -45 -25 -75 -103 -116 -182 -95 -48 13 -94 57 -103 99 -4
20 -14 30 -29 33 -21 4 -27 -4 -56 -76 -18 -45 -47 -103 -65 -131 -39 -61
-114 -132 -149 -141 -22 -5 -26 -12 -26 -45 l0 -39 329 0 c321 0 330 1 336 20
9 30 53 79 86 95 36 19 122 19 158 0 33 -16 77 -65 86 -95 6 -19 15 -20 336
-20 l329 0 0 165 0 165 -245 0 c-232 0 -246 1 -265 20 -19 19 -20 33 -20 203
0 131 4 188 13 200 7 10 30 17 62 19 38 2 51 7 53 21 3 14 -4 17 -47 17 -80 0
-81 2 -81 220 0 218 1 220 81 220 42 0 49 3 49 20 0 18 -7 20 -55 20 -43 0
-56 4 -65 19 -6 12 -10 95 -10 200 0 168 1 182 20 201 19 19 33 20 265 20
l245 0 0 165 0 165 -329 0 c-321 0 -330 -1 -336 -20 -9 -30 -53 -79 -86 -95
-36 -19 -122 -19 -158 0 -33 16 -77 65 -86 95 -6 19 -15 20 -336 20 l-329 0 0
-37z"/>
<path d="M1773 3425 c-29 -20 -37 -59 -19 -94 25 -48 82 -56 121 -16 30 30 32
64 4 99 -24 30 -71 35 -106 11z"/>
<path d="M1671 3211 c-37 -58 -84 -169 -78 -185 3 -6 31 -20 63 -30 33 -10 82
-29 111 -41 l52 -23 98 38 c54 20 106 40 116 43 9 4 17 14 17 22 0 21 -63 157
-90 195 l-21 30 -30 -23 c-43 -31 -135 -31 -177 0 l-30 22 -31 -48z"/>
<path d="M3070 3035 l0 -145 480 0 480 0 0 145 0 145 -480 0 -480 0 0 -145z
m470 86 c13 -25 13 -147 0 -172 -10 -18 -23 -19 -205 -19 -106 0 -200 3 -209
6 -13 5 -16 23 -16 98 0 51 3 96 7 99 3 4 98 7 209 7 191 0 204 -1 214 -19z
m203 -11 c75 -59 17 -183 -78 -166 -47 9 -70 39 -70 93 0 37 5 49 28 69 35 30
85 31 120 4z m219 -10 c27 -27 30 -36 25 -71 -7 -50 -30 -77 -72 -85 -43 -8
-89 16 -105 55 -40 98 77 175 152 101z"/>
<path d="M3180 3040 l0 -30 145 0 145 0 0 30 0 30 -145 0 -145 0 0 -30z"/>
<path d="M3670 3035 c0 -8 7 -15 15 -15 8 0 15 7 15 15 0 8 -7 15 -15 15 -8 0
-15 -7 -15 -15z"/>
<path d="M3880 3035 c0 -8 7 -15 15 -15 8 0 15 7 15 15 0 8 -7 15 -15 15 -8 0
-15 -7 -15 -15z"/>
<path d="M1220 2981 c-81 -17 -130 -65 -130 -128 1 -42 42 -134 93 -205 70
-99 68 -98 129 -43 28 25 71 60 93 76 42 30 42 31 59 132 9 56 19 114 22 128
6 26 4 27 -71 38 -83 12 -141 13 -195 2z"/>
<path d="M2212 2978 c-59 -9 -63 -12 -58 -31 4 -12 14 -70 23 -128 15 -100 18
-107 48 -128 18 -12 61 -46 95 -76 61 -53 64 -54 83 -37 36 32 109 142 128
192 30 78 26 125 -14 165 -52 52 -154 66 -305 43z"/>
<path d="M1550 2873 c-6 -37 -14 -77 -17 -88 -5 -16 -3 -18 8 -9 8 7 54 34
102 62 l88 50 -58 22 c-111 41 -109 42 -123 -37z"/>
<path d="M1990 2919 c-30 -10 -58 -23 -62 -27 -6 -6 160 -112 177 -112 3 0 3
10 1 23 -3 12 -10 48 -16 80 -13 65 -15 66 -100 36z"/>
<path d="M1735 2802 c-49 -26 -118 -65 -152 -87 l-63 -40 0 -173 0 -172 74
-49 c41 -26 108 -65 149 -87 l76 -39 48 23 c26 13 94 50 149 84 l101 60 7 61
c8 76 8 158 0 234 l-7 60 -61 40 c-33 22 -99 60 -146 86 l-85 46 -90 -47z
m188 -114 c115 -64 141 -216 54 -314 -129 -148 -367 -56 -367 142 0 16 12 53
26 82 55 111 179 150 287 90z"/>
<path d="M1760 2627 c-13 -7 -35 -28 -48 -47 -19 -28 -23 -44 -19 -83 5 -62
33 -98 85 -115 35 -12 49 -12 84 0 104 33 121 186 28 242 -33 19 -95 21 -130
3z"/>
<path d="M3190 2795 c0 -13 46 -15 355 -15 309 0 355 2 355 15 0 13 -46 15
-355 15 -309 0 -355 -2 -355 -15z"/>
<path d="M3070 2560 l0 -140 480 0 480 0 0 140 0 140 -480 0 -480 0 0 -140z
m462 93 c14 -13 18 -31 18 -91 0 -115 5 -112 -217 -112 -108 0 -192 4 -204 10
-17 9 -19 22 -19 100 0 74 3 91 18 99 10 6 95 11 201 11 158 0 187 -2 203 -17z
m219 -29 c56 -59 15 -154 -66 -154 -65 0 -107 52 -91 115 17 66 110 89 157 39z
m207 6 c64 -60 25 -160 -63 -160 -55 0 -90 35 -90 90 0 55 35 90 90 90 28 0
48 -7 63 -20z"/>
<path d="M3180 2560 l0 -30 145 0 145 0 0 30 0 30 -145 0 -145 0 0 -30z"/>
<path d="M3670 2560 c0 -11 7 -20 15 -20 8 0 15 9 15 20 0 11 -7 20 -15 20 -8
0 -15 -9 -15 -20z"/>
<path d="M3880 2560 c0 -11 7 -20 15 -20 8 0 15 9 15 20 0 11 -7 20 -15 20 -8
0 -15 -9 -15 -20z"/>
<path d="M1372 2558 l-64 -53 64 -57 63 -57 3 54 c2 30 2 80 0 110 l-3 55 -63
-52z"/>
<path d="M2200 2499 l0 -111 38 30 c20 17 50 44 65 60 l29 30 -62 51 c-33 28
-63 51 -66 51 -2 0 -4 -50 -4 -111z"/>
<path d="M1206 2389 c-89 -110 -133 -233 -104 -288 7 -13 25 -33 39 -44 l26
-19 40 43 c37 39 45 43 99 46 68 5 111 -16 142 -66 11 -19 22 -27 30 -22 10 6
9 22 -2 77 -8 38 -17 92 -21 121 -6 44 -12 56 -43 80 -21 15 -64 51 -98 79
l-61 52 -47 -59z"/>
<path d="M2361 2426 c-14 -14 -57 -52 -98 -83 -56 -44 -73 -64 -73 -83 0 -14
-9 -68 -19 -120 -13 -65 -15 -97 -8 -102 6 -3 29 14 51 39 37 41 47 46 94 51
64 6 104 -10 141 -55 28 -34 30 -34 53 -19 84 55 51 201 -80 354 l-37 43 -24
-25z"/>
<path d="M3190 2325 c0 -13 46 -15 355 -15 309 0 355 2 355 15 0 13 -46 15
-355 15 -309 0 -355 -2 -355 -15z"/>
<path d="M1533 2214 c3 -10 11 -49 17 -86 7 -38 15 -68 19 -68 10 0 153 49
158 54 2 2 -24 19 -59 38 -35 19 -80 45 -102 58 -36 22 -38 22 -33 4z"/>
<path d="M2060 2201 c-25 -16 -69 -42 -98 -58 l-52 -29 80 -28 c45 -16 83 -26
86 -24 6 6 35 160 31 164 -1 2 -23 -10 -47 -25z"/>
<path d="M3070 2085 l0 -145 480 0 480 0 0 145 0 145 -480 0 -480 0 0 -145z
m470 86 c14 -28 13 -154 -3 -174 -11 -16 -33 -17 -217 -15 l-205 3 -3 94 c-2
69 1 97 10 103 7 4 102 8 210 8 185 0 198 -1 208 -19z m189 -6 c57 -29 65
-115 14 -155 -77 -61 -184 27 -141 116 23 49 76 66 127 39z m234 -13 c10 -11
21 -38 24 -60 5 -36 2 -45 -25 -72 -74 -74 -192 4 -152 101 24 58 109 75 153
31z"/>
<path d="M3180 2080 l0 -30 145 0 145 0 0 30 0 30 -145 0 -145 0 0 -30z"/>
<path d="M3670 2085 c0 -8 7 -15 15 -15 8 0 15 7 15 15 0 8 -7 15 -15 15 -8 0
-15 -7 -15 -15z"/>
<path d="M3880 2085 c0 -8 7 -15 15 -15 8 0 15 7 15 15 0 8 -7 15 -15 15 -8 0
-15 -7 -15 -15z"/>
<path d="M1735 2039 c-38 -16 -86 -35 -107 -41 -21 -6 -38 -16 -38 -23 0 -24
53 -142 87 -193 85 -128 189 -135 274 -20 39 54 66 108 89 174 l18 53 -29 6
c-17 4 -69 22 -117 41 -48 19 -91 34 -97 33 -5 0 -41 -14 -80 -30z"/>
<path d="M1261 2024 c-28 -35 -26 -69 4 -99 51 -52 125 -20 125 53 0 48 -24
72 -73 72 -27 0 -41 -7 -56 -26z"/>
<path d="M2271 2024 c-28 -35 -27 -69 4 -99 64 -65 158 5 117 87 -15 28 -23
33 -58 36 -35 3 -45 -1 -63 -24z"/>
<path d="M2640 1577 c-31 -15 -50 -52 -50 -95 0 -49 46 -92 97 -92 74 0 116
58 94 130 -18 61 -82 87 -141 57z"/>
</g>
</svg>
